<?xml version="1.0" standalone="no"?>
<!DOCTYPE svg PUBLIC "-//W3C//DTD SVG 20010904//EN"
 "http://www.w3.org/TR/2001/REC-SVG-20010904/DTD/svg10.dtd">
<svg version="1.0" xmlns="http://www.w3.org/2000/svg"
 width="640.000000pt" height="640.000000pt" viewBox="0 0 640.000000 640.000000"
 preserveAspectRatio="xMidYMid meet">

<g transform="translate(0.000000,640.000000) scale(0.100000,-0.100000)"
fill="#000000" stroke="none">
<path d="M2250 3840 l0 -119 -637 -3 c-701 -3 -668 0 -698 -64 -12 -27 -15
-91 -15 -376 0 -188 5 -370 10 -403 14 -84 60 -173 120 -229 l50 -47 0 -739 0
-740 -40 0 c-61 0 -107 -23 -126 -64 -15 -31 -16 -39 -3 -73 10 -26 26 -44 49
-55 33 -17 161 -18 2240 -18 2079 0 2207 1 2240 18 23 11 39 29 49 55 13 34
12 42 -3 73 -19 41 -65 64 -126 64 l-40 0 0 740 0 739 50 47 c60 56 106 145
120 229 5 33 10 215 10 403 0 285 -3 349 -15 376 -30 64 3 61 -697 64 l-638 3
0 119 0 120 -100 0 -100 0 0 -120 0 -120 -750 0 -750 0 0 120 0 120 -100 0
-100 0 0 -120z m-722 -648 l-3 -319 -28 -41 c-73 -111 -218 -133 -314 -49 -70
62 -73 74 -73 420 l0 307 211 0 210 0 -3 -318z m622 0 l0 -319 -28 -42 c-78
-116 -224 -133 -322 -38 -59 57 -60 66 -60 407 l0 310 205 0 205 0 0 -318z
m628 -6 l-3 -324 -31 -39 c-42 -52 -87 -81 -141 -89 -91 -13 -174 31 -217 118
l-26 52 0 303 0 303 210 0 211 0 -3 -324z m630 6 l-3 -319 -28 -41 c-15 -23
-46 -54 -69 -69 -35 -24 -52 -28 -108 -28 -56 0 -73 4 -108 28 -23 15 -54 46
-69 69 l-28 41 -3 319 -3 318 211 0 211 0 -3 -318z m630 6 l-3 -313 -28 -48
c-68 -116 -218 -140 -317 -51 -70 63 -70 65 -70 413 l0 311 211 0 210 0 -3
-312z m622 2 c0 -341 -1 -350 -60 -407 -98 -95 -244 -78 -322 38 l-28 42 0
319 0 318 205 0 205 0 0 -310z m630 3 c0 -346 -3 -358 -73 -420 -96 -84 -241
-62 -314 49 l-28 41 -3 319 -3 318 210 0 211 0 0 -307z m-3540 -627 c74 -37
133 -49 223 -44 95 5 186 41 248 100 l36 34 39 -34 c21 -18 68 -48 104 -65 60
-30 73 -32 170 -32 126 0 192 22 267 89 l48 43 50 -43 c77 -68 139 -89 265
-89 126 0 188 21 265 89 l50 43 48 -43 c74 -67 141 -89 267 -89 98 0 110 2
170 32 36 17 83 47 104 65 l39 34 36 -34 c144 -136 413 -135 552 2 36 35 36
35 54 16 30 -33 116 -86 169 -103 27 -10 74 -17 103 -17 l53 0 0 -705 0 -705
-1150 0 -1150 0 0 586 c0 411 -3 592 -11 607 -6 12 -21 30 -33 39 -19 16 -69
18 -643 18 l-621 0 -31 -31 -31 -31 0 -594 0 -594 -75 0 -75 0 0 705 0 705 53
0 c29 0 76 7 103 17 53 17 139 70 169 103 18 19 18 19 54 -16 20 -20 56 -46
81 -58z m850 -931 l0 -525 -480 0 -480 0 0 518 c0 285 3 522 7 525 3 4 219 7
480 7 l473 0 0 -525z"/>
</g>
</svg>
