<?xml version="1.0" standalone="no"?>
<!DOCTYPE svg PUBLIC "-//W3C//DTD SVG 20010904//EN"
 "http://www.w3.org/TR/2001/REC-SVG-20010904/DTD/svg10.dtd">
<svg version="1.0" xmlns="http://www.w3.org/2000/svg"
 width="360.000000pt" height="360.000000pt" viewBox="0 0 360.000000 360.000000"
 preserveAspectRatio="xMidYMid meet">

<g transform="translate(0.000000,360.000000) scale(0.100000,-0.100000)"
fill="#000000" stroke="none">
<path d="M1659 3373 c-168 -83 -287 -230 -297 -364 l-4 -57 -67 -17 c-185 -46
-272 -127 -276 -258 l-2 -59 -90 -47 c-210 -112 -353 -256 -449 -456 -24 -49
-52 -125 -61 -167 -14 -61 -22 -78 -35 -78 -11 0 -18 -8 -18 -19 0 -31 570
-1575 586 -1587 26 -20 301 -59 529 -74 272 -18 646 -9 880 20 158 20 285 43
299 54 16 12 586 1556 586 1587 0 11 -7 19 -18 19 -13 0 -21 17 -35 78 -9 42
-37 118 -61 167 -96 200 -239 344 -449 456 l-90 47 -2 59 c-4 131 -91 212
-277 259 l-68 16 0 45 c0 70 -45 108 -198 167 -68 27 -142 62 -165 80 -42 31
-81 95 -92 149 -3 15 -12 27 -19 27 -8 0 -56 -21 -107 -47z m101 -8 c0 -26 37
-89 72 -124 39 -39 91 -66 216 -115 106 -41 136 -60 153 -98 35 -84 -51 -174
-216 -224 -84 -26 -286 -26 -370 0 -83 25 -144 58 -185 101 -32 33 -35 42 -35
93 0 95 62 197 170 279 53 40 167 103 188 103 4 0 7 -7 7 -15z m-354 -485
c155 -171 633 -171 788 0 l37 41 67 -17 c125 -31 204 -80 238 -146 20 -38 20
-107 0 -146 -42 -81 -207 -157 -436 -199 -71 -13 -148 -17 -300 -17 -152 0
-229 4 -300 17 -229 42 -394 118 -436 199 -20 39 -20 108 0 146 19 37 80 90
125 110 32 13 154 50 174 51 4 1 23 -17 43 -39z m-324 -336 c121 -113 396
-184 718 -184 323 0 597 71 719 185 l50 47 91 -48 c132 -70 201 -128 217 -184
19 -65 27 -180 14 -212 -16 -41 -40 -34 -91 24 -115 133 -181 182 -249 182
-25 0 -40 -8 -59 -29 -24 -28 -24 -32 -17 -120 14 -147 11 -198 -11 -236 -38
-64 -103 -64 -165 1 -20 21 -59 85 -87 142 -81 165 -157 221 -226 167 -36 -28
-58 -74 -97 -201 -37 -124 -71 -175 -108 -163 -33 10 -76 84 -112 192 -34 103
-65 148 -116 170 -81 33 -172 -36 -257 -196 -75 -140 -141 -185 -182 -124 -14
22 -19 57 -24 156 -8 154 -20 180 -89 185 -54 4 -102 -19 -228 -109 -53 -38
-103 -69 -110 -69 -24 0 -35 49 -23 104 20 99 52 149 134 212 60 47 237 153
255 154 2 0 26 -21 53 -46z m1958 -341 c59 -89 104 -195 124 -293 l15 -74 -25
-33 c-32 -43 -60 -42 -115 2 -65 51 -99 48 -161 -15 -27 -27 -55 -50 -62 -50
-7 0 -37 18 -66 40 -75 56 -105 52 -169 -22 -18 -21 -42 -38 -52 -38 -11 0
-42 18 -70 40 -71 56 -98 54 -160 -10 -27 -27 -55 -50 -63 -50 -8 0 -36 18
-61 40 -25 22 -57 43 -69 46 -27 6 -81 -18 -89 -41 -4 -8 -21 -24 -38 -34 -37
-23 -51 -18 -112 35 -49 45 -85 45 -134 0 -61 -53 -75 -58 -112 -35 -17 10
-34 26 -38 34 -8 23 -62 47 -89 41 -12 -3 -44 -24 -69 -46 -25 -22 -53 -40
-61 -40 -8 0 -36 23 -63 50 -62 64 -89 66 -160 10 -28 -22 -59 -40 -70 -40
-10 0 -34 17 -52 38 -64 74 -94 78 -169 22 -29 -22 -59 -40 -66 -40 -7 0 -35
22 -62 50 -62 63 -96 66 -161 15 -55 -44 -83 -45 -115 -2 l-25 33 15 74 c21
98 65 203 125 295 27 41 50 75 53 75 2 0 -1 -19 -6 -42 -11 -49 -5 -112 12
-133 26 -31 69 -17 169 54 222 158 256 153 264 -39 7 -166 34 -220 109 -220
33 0 45 7 81 44 23 24 60 78 82 121 66 128 126 185 195 185 47 0 84 -45 115
-142 66 -203 143 -275 214 -199 30 32 45 69 86 204 19 63 36 99 60 125 l33 37
36 -18 c40 -18 79 -74 139 -198 24 -50 54 -92 86 -122 46 -43 54 -47 100 -47
41 0 54 5 79 29 16 16 35 50 42 76 12 44 12 68 -6 217 -17 146 95 142 222 -8
75 -88 105 -114 136 -114 35 0 56 22 64 67 7 37 0 153 -11 188 -11 32 73 -62
125 -142z m-2332 -446 l53 -54 179 -709 c99 -390 180 -715 180 -722 0 -9 -10
-11 -37 -6 -21 4 -40 8 -42 10 -6 5 -531 1438 -531 1449 0 6 16 19 35 29 19
10 42 27 51 37 28 31 56 23 112 -34z m2318 18 c25 -19 50 -35 55 -35 5 0 9 -6
9 -12 0 -14 -524 -1446 -531 -1452 -2 -2 -21 -6 -41 -10 -28 -5 -38 -3 -38 6
0 7 81 332 180 722 l179 709 53 54 c29 29 60 53 70 53 10 0 38 -16 64 -35z
m-2028 -41 l56 -56 118 -716 c64 -394 115 -718 113 -720 -1 -2 -30 0 -63 4
l-60 6 -70 277 c-189 740 -292 1151 -291 1163 0 15 107 97 128 98 7 0 38 -25
69 -56z m1742 14 c33 -24 59 -49 59 -56 1 -12 -102 -424 -291 -1163 l-70 -277
-60 -6 c-33 -4 -62 -6 -63 -4 -2 2 49 326 113 720 l118 716 56 56 c31 31 61
56 68 56 7 0 38 -19 70 -42z m-2006 -737 c146 -398 264 -726 262 -728 -9 -9
-35 11 -45 35 -35 89 -531 1447 -531 1456 0 6 11 -1 24 -14 18 -18 101 -234
290 -749z m2186 44 c-143 -391 -265 -722 -271 -737 -10 -24 -36 -44 -45 -35
-2 2 116 330 262 728 239 651 299 799 311 762 2 -5 -114 -328 -257 -718z
m-1636 668 c36 -32 56 -58 60 -78 5 -28 136 -1386 136 -1412 0 -9 -20 -10 -72
-6 -40 3 -76 8 -80 12 -3 3 -59 330 -124 725 -83 510 -114 721 -106 724 6 2
33 21 59 43 26 21 53 39 60 39 7 0 37 -21 67 -47z m1159 8 c26 -22 53 -41 59
-43 8 -3 -23 -214 -106 -724 -65 -395 -121 -722 -124 -725 -4 -4 -40 -9 -79
-12 -53 -4 -73 -3 -73 6 0 26 131 1384 136 1412 6 31 101 125 127 125 7 0 34
-18 60 -39z m-857 -29 l51 -48 16 -634 c10 -349 18 -673 18 -720 l2 -85 -74 3
c-41 2 -77 7 -80 10 -7 8 -143 1417 -137 1430 8 22 105 91 128 91 16 0 43 -16
76 -47z m286 2 c29 -26 54 -48 56 -49 4 -3 -26 -1157 -34 -1322 l-6 -123 -88
0 -88 0 -6 122 c-8 166 -38 1320 -34 1323 2 1 27 23 56 49 29 25 61 46 72 46
11 0 43 -21 72 -46z m293 4 c30 -24 55 -50 55 -58 1 -42 -134 -1416 -139
-1422 -3 -3 -39 -8 -80 -10 l-74 -3 2 85 c0 47 8 371 18 720 l16 634 51 48
c29 26 61 47 73 48 13 0 48 -19 78 -42z"/>
</g>
</svg>
